<svg width="33" height="33" viewBox="0 0 33 33" fill="none" xmlns="http://www.w3.org/2000/svg">
<g id="academic-cap">
<path id="Vector" d="M17.2971 4.08609C17.0979 4.0007 16.8834 3.95667 16.6667 3.95667C16.4499 3.95667 16.2355 4.0007 16.0363 4.08609L4.83626 8.88609C4.54763 9.00904 4.30153 9.21413 4.12854 9.47585C3.95556 9.73757 3.86333 10.0444 3.86333 10.3581C3.86333 10.6718 3.95556 10.9786 4.12854 11.2403C4.30153 11.502 4.54763 11.7071 4.83626 11.8301L9.06666 13.6397C9.22368 13.4621 9.41825 13.3216 9.63626 13.2285L16.0363 10.4861C16.2299 10.3998 16.4388 10.3528 16.6508 10.3479C16.8628 10.3431 17.0736 10.3804 17.271 10.4577C17.4685 10.535 17.6486 10.6508 17.8009 10.7983C17.9532 10.9458 18.0746 11.1222 18.1582 11.317C18.2417 11.5119 18.2857 11.7215 18.2875 11.9335C18.2894 12.1455 18.2491 12.3558 18.169 12.5521C18.0889 12.7484 17.9705 12.9268 17.8208 13.077C17.6711 13.2272 17.4931 13.3461 17.2971 13.4269L12.9339 15.2989L16.0379 16.6285C16.2368 16.7137 16.451 16.7576 16.6675 16.7576C16.8839 16.7576 17.0981 16.7137 17.2971 16.6285L28.4971 11.8285C28.7847 11.7051 29.0299 11.5 29.2022 11.2386C29.3744 10.9773 29.4662 10.6711 29.4662 10.3581C29.4662 10.0451 29.3744 9.73891 29.2022 9.47755C29.0299 9.21619 28.7847 9.0111 28.4971 8.88769L17.2971 4.08769V4.08609ZM5.96266 15.7933L8.66666 16.9501V23.5133C8.11266 23.3873 7.55168 23.2944 6.98666 23.2349C6.62209 23.1966 6.28173 23.0342 6.02252 22.775C5.76331 22.5158 5.60097 22.1755 5.56266 21.8109C5.35224 19.7964 5.48752 17.7607 5.96266 15.7917V15.7933ZM15.5467 27.2749C14.4651 26.2136 13.2232 25.3292 11.8667 24.6541V18.3229L14.7755 19.5709C15.3731 19.8271 16.0165 19.9592 16.6667 19.9592C17.3168 19.9592 17.9603 19.8271 18.5579 19.5709L27.3707 15.7933C27.8486 17.7618 27.9839 19.798 27.7707 21.8125C27.7323 22.1771 27.57 22.5174 27.3108 22.7766C27.0516 23.0358 26.7112 23.1982 26.3467 23.2365C23.1187 23.5757 20.1011 24.9994 17.7867 27.2749C17.4876 27.5681 17.0855 27.7323 16.6667 27.7323C16.2479 27.7323 15.8457 27.5681 15.5467 27.2749V27.2749ZM10.2667 29.5581C10.691 29.5581 11.098 29.3895 11.398 29.0895C11.6981 28.7894 11.8667 28.3824 11.8667 27.9581V24.6541C10.8491 24.1485 9.77481 23.7661 8.66666 23.5149V27.9581C8.66666 28.3824 8.83523 28.7894 9.13529 29.0895C9.43535 29.3895 9.84231 29.5581 10.2667 29.5581Z" fill="#1C64F2"/>
</g>
</svg>
