<svg width="33" height="33" viewBox="0 0 33 33" fill="none" xmlns="http://www.w3.org/2000/svg">
<g id="briefcase">
<path id="Vector" fill-rule="evenodd" clip-rule="evenodd" d="M9.93332 10.358V8.75801C9.93332 7.48497 10.439 6.26407 11.3392 5.3639C12.2394 4.46372 13.4603 3.95801 14.7333 3.95801H17.9333C19.2064 3.95801 20.4273 4.46372 21.3274 5.3639C22.2276 6.26407 22.7333 7.48497 22.7333 8.75801V10.358H25.9333C26.782 10.358 27.5959 10.6951 28.1961 11.2953C28.7962 11.8954 29.1333 12.7093 29.1333 13.558V19.27C25.0367 20.788 20.7021 21.5628 16.3333 21.558C11.9645 21.5629 7.62991 20.788 3.53333 19.27V13.558C3.53333 12.7093 3.87047 11.8954 4.47058 11.2953C5.0707 10.6951 5.88463 10.358 6.73333 10.358H9.93332ZM13.1333 8.75801C13.1333 8.33366 13.3019 7.9267 13.602 7.62664C13.902 7.32658 14.309 7.15801 14.7333 7.15801H17.9333C18.3577 7.15801 18.7646 7.32658 19.0647 7.62664C19.3648 7.9267 19.5333 8.33366 19.5333 8.75801V10.358H13.1333V8.75801ZM14.7333 16.758C14.7333 16.3337 14.9019 15.9267 15.202 15.6266C15.502 15.3266 15.909 15.158 16.3333 15.158H16.3493C16.7737 15.158 17.1806 15.3266 17.4807 15.6266C17.7808 15.9267 17.9493 16.3337 17.9493 16.758C17.9493 17.1824 17.7808 17.5893 17.4807 17.8894C17.1806 18.1894 16.7737 18.358 16.3493 18.358H16.3333C15.909 18.358 15.502 18.1894 15.202 17.8894C14.9019 17.5893 14.7333 17.1824 14.7333 16.758Z" fill="#1C64F2"/>
<path id="Vector_2" d="M3.53333 22.6653V26.3581C3.53333 27.2068 3.87047 28.0207 4.47058 28.6208C5.0707 29.2209 5.88463 29.5581 6.73333 29.5581H25.9333C26.782 29.5581 27.5959 29.2209 28.1961 28.6208C28.7962 28.0207 29.1333 27.2068 29.1333 26.3581V22.6653C25.0091 24.0553 20.6855 24.7622 16.3333 24.7581C11.8597 24.7581 7.55412 24.0221 3.53333 22.6653Z" fill="#1C64F2"/>
</g>
</svg>
