<svg width="24" height="25" viewBox="0 0 24 25" fill="none" xmlns="http://www.w3.org/2000/svg">
<g id="FontAwesome/dribbble">
<path id="dribbble" d="M11.7188 3.75806C6.90234 3.75806 3 7.69556 3 12.4768C3 17.2932 6.90234 21.1956 11.7188 21.1956C16.5 21.1956 20.4375 17.2932 20.4375 12.4768C20.4375 7.69556 16.5 3.75806 11.7188 3.75806ZM17.4492 7.80103C18.5039 9.06665 19.1367 10.6838 19.1367 12.4417C18.8906 12.3713 16.4297 11.8792 13.9688 12.1956C13.7578 11.7034 13.582 11.2815 13.3008 10.719C16.0781 9.59399 17.3086 8.01196 17.4492 7.80103ZM16.6406 6.92212C16.5 7.13306 15.375 8.64478 12.7383 9.62915C11.5078 7.37915 10.1719 5.55103 9.96094 5.26978C12.3164 4.70728 14.8125 5.30493 16.6406 6.92212ZM8.51953 5.76196C8.73047 6.04321 10.0664 7.87134 11.2969 10.0862C7.81641 11.0002 4.75781 11.0002 4.40625 10.9651C4.89844 8.67993 6.44531 6.74634 8.51953 5.76196ZM4.26562 12.512C4.26562 12.4417 4.26562 12.3713 4.26562 12.2659C4.58203 12.301 8.20312 12.3362 11.8945 11.2112C12.1406 11.6331 12.3164 12.0549 12.5273 12.4768C9.82031 13.2502 7.35938 15.4299 6.16406 17.469C4.96875 16.1682 4.26562 14.4104 4.26562 12.512ZM7.11328 18.3831C7.92188 16.801 10.0312 14.7268 13.0195 13.7073C14.0742 16.4143 14.4961 18.6995 14.6016 19.3674C12.2109 20.387 9.32812 20.1057 7.11328 18.3831ZM15.8672 18.6643C15.7969 18.2424 15.375 16.0627 14.4258 13.3557C16.7461 13.0042 18.7852 13.6018 19.0664 13.6721C18.7148 15.7463 17.5195 17.5393 15.8672 18.6643Z" fill="#9CA3AF"/>
</g>
</svg>
