<svg width="24" height="25" viewBox="0 0 24 25" fill="none" xmlns="http://www.w3.org/2000/svg">
<g id="FontAwesome/github">
<path id="github" d="M8.80078 17.469C8.80078 17.3987 8.73047 17.3284 8.625 17.3284C8.51953 17.3284 8.44922 17.3987 8.44922 17.469C8.44922 17.5393 8.51953 17.6096 8.625 17.5745C8.73047 17.5745 8.80078 17.5393 8.80078 17.469ZM7.71094 17.2932C7.71094 17.3635 7.78125 17.469 7.88672 17.469C7.95703 17.5042 8.0625 17.469 8.09766 17.3987C8.09766 17.3284 8.0625 17.2581 7.95703 17.2229C7.85156 17.1877 7.74609 17.2229 7.71094 17.2932ZM9.29297 17.2581C9.1875 17.2581 9.11719 17.3284 9.11719 17.4338C9.11719 17.5042 9.22266 17.5393 9.32812 17.5042C9.43359 17.469 9.50391 17.4338 9.46875 17.3635C9.46875 17.2932 9.36328 17.2229 9.29297 17.2581ZM11.5781 3.75806C6.72656 3.75806 3 7.48462 3 12.3362C3 16.2385 5.42578 19.5784 8.94141 20.7737C9.39844 20.844 9.53906 20.5627 9.53906 20.3518C9.53906 20.1057 9.53906 18.9104 9.53906 18.1721C9.53906 18.1721 7.07812 18.6995 6.55078 17.1174C6.55078 17.1174 6.16406 16.0979 5.60156 15.8518C5.60156 15.8518 4.79297 15.2893 5.63672 15.2893C5.63672 15.2893 6.51562 15.3596 7.00781 16.2034C7.78125 17.5745 9.04688 17.1877 9.57422 16.9417C9.64453 16.3792 9.85547 15.9924 10.1367 15.7463C8.16797 15.5354 6.16406 15.2542 6.16406 11.8792C6.16406 10.8948 6.44531 10.4377 7.00781 9.80493C6.90234 9.55884 6.62109 8.64478 7.11328 7.41431C7.81641 7.20337 9.53906 8.36353 9.53906 8.36353C10.2422 8.15259 10.9805 8.08228 11.7188 8.08228C12.4922 8.08228 13.2305 8.15259 13.9336 8.36353C13.9336 8.36353 15.6211 7.16821 16.3594 7.41431C16.8516 8.64478 16.5352 9.55884 16.4648 9.80493C17.0273 10.4377 17.3789 10.8948 17.3789 11.8792C17.3789 15.2542 15.3047 15.5354 13.3359 15.7463C13.6523 16.0276 13.9336 16.5549 13.9336 17.3987C13.9336 18.5588 13.8984 20.0354 13.8984 20.3167C13.8984 20.5627 14.0742 20.844 14.5312 20.7385C18.0469 19.5784 20.4375 16.2385 20.4375 12.3362C20.4375 7.48462 16.4648 3.75806 11.5781 3.75806ZM6.41016 15.887C6.33984 15.9221 6.375 16.0276 6.41016 16.0979C6.48047 16.1331 6.55078 16.1682 6.62109 16.1331C6.65625 16.0979 6.65625 15.9924 6.58594 15.9221C6.51562 15.887 6.44531 15.8518 6.41016 15.887ZM6.02344 15.6057C5.98828 15.676 6.02344 15.7112 6.09375 15.7463C6.16406 15.7815 6.23438 15.7815 6.26953 15.7112C6.26953 15.676 6.23438 15.6409 6.16406 15.6057C6.09375 15.5706 6.05859 15.5706 6.02344 15.6057ZM7.14844 16.8713C7.11328 16.9065 7.11328 17.012 7.21875 17.0823C7.28906 17.1526 7.39453 17.1877 7.42969 17.1174C7.46484 17.0823 7.46484 16.9768 7.39453 16.9065C7.32422 16.8362 7.21875 16.801 7.14844 16.8713ZM6.76172 16.344C6.69141 16.3792 6.69141 16.4846 6.76172 16.5549C6.83203 16.6252 6.90234 16.6604 6.97266 16.6252C7.00781 16.5901 7.00781 16.4846 6.97266 16.4143C6.90234 16.344 6.83203 16.3088 6.76172 16.344Z" fill="#9CA3AF"/>
</g>
</svg>
