<svg width="32" height="33" viewBox="0 0 32 33" fill="none" xmlns="http://www.w3.org/2000/svg">
<g id="presentation-chart-line">
<path id="Vector" fill-rule="evenodd" clip-rule="evenodd" d="M4.80001 5.55811C4.37567 5.55811 3.9687 5.72668 3.66864 6.02673C3.36858 6.32679 3.20001 6.73376 3.20001 7.15811C3.20001 7.58245 3.36858 7.98942 3.66864 8.28948C3.9687 8.58953 4.37567 8.75811 4.80001 8.75811V21.5581C4.80001 22.4068 5.13715 23.2207 5.73727 23.8208C6.33739 24.421 7.15132 24.7581 8.00001 24.7581H12.1376L10.0688 26.8269C9.916 26.9745 9.7941 27.1511 9.71025 27.3463C9.6264 27.5415 9.58226 27.7514 9.58041 27.9639C9.57857 28.1763 9.61905 28.387 9.6995 28.5836C9.77995 28.7803 9.89875 28.9589 10.049 29.1091C10.1992 29.2594 10.3779 29.3782 10.5745 29.4586C10.7711 29.5391 10.9818 29.5796 11.1943 29.5777C11.4067 29.5759 11.6167 29.5317 11.8119 29.4479C12.0071 29.364 12.1836 29.2421 12.3312 29.0893L16 25.4205L19.6688 29.0893C19.9706 29.3808 20.3747 29.542 20.7943 29.5384C21.2138 29.5347 21.6151 29.3665 21.9117 29.0698C22.2084 28.7732 22.3766 28.3719 22.3803 27.9523C22.3839 27.5328 22.2227 27.1287 21.9312 26.8269L19.8624 24.7581H24C24.8487 24.7581 25.6626 24.421 26.2628 23.8208C26.8629 23.2207 27.2 22.4068 27.2 21.5581V8.75811C27.6244 8.75811 28.0313 8.58953 28.3314 8.28948C28.6314 7.98942 28.8 7.58245 28.8 7.15811C28.8 6.73376 28.6314 6.32679 28.3314 6.02673C28.0313 5.72668 27.6244 5.55811 27.2 5.55811H4.80001ZM23.5312 13.0893C23.8227 12.7875 23.9839 12.3834 23.9803 11.9639C23.9766 11.5443 23.8084 11.143 23.5117 10.8464C23.2151 10.5497 22.8138 10.3815 22.3943 10.3778C21.9747 10.3742 21.5706 10.5355 21.2688 10.8269L16 16.0957L13.9312 14.0269C13.6312 13.727 13.2243 13.5584 12.8 13.5584C12.3757 13.5584 11.9689 13.727 11.6688 14.0269L8.46881 17.2269C8.316 17.3745 8.1941 17.5511 8.11025 17.7463C8.0264 17.9415 7.98226 18.1514 7.98041 18.3639C7.97857 18.5763 8.01905 18.787 8.0995 18.9836C8.17995 19.1803 8.29875 19.3589 8.44898 19.5091C8.59921 19.6594 8.77785 19.7782 8.97449 19.8586C9.17112 19.9391 9.38181 19.9796 9.59425 19.9777C9.8067 19.9759 10.0167 19.9317 10.2119 19.8479C10.4071 19.764 10.5836 19.6421 10.7312 19.4893L12.8 17.4205L14.8688 19.4893C15.1689 19.7893 15.5757 19.9578 16 19.9578C16.4243 19.9578 16.8312 19.7893 17.1312 19.4893L23.5312 13.0893V13.0893Z" fill="#1C64F2"/>
</g>
</svg>
