<svg width="24" height="25" viewBox="0 0 24 25" fill="none" xmlns="http://www.w3.org/2000/svg">
<g id="FontAwesome/twitter">
<path id="twitter" d="M19.1367 9.37915C19.8398 8.85181 20.4727 8.21899 20.9648 7.48071C20.332 7.76196 19.5938 7.9729 18.8555 8.04321C19.6289 7.58618 20.1914 6.88306 20.4727 6.00415C19.7695 6.42603 18.9609 6.74243 18.1523 6.91821C17.4492 6.17993 16.5 5.75806 15.4453 5.75806C13.4062 5.75806 11.7539 7.4104 11.7539 9.44946C11.7539 9.73071 11.7891 10.012 11.8594 10.2932C8.80078 10.1174 6.05859 8.64087 4.23047 6.42603C3.91406 6.95337 3.73828 7.58618 3.73828 8.28931C3.73828 9.55493 4.37109 10.6799 5.39062 11.3479C4.79297 11.3127 4.19531 11.1721 3.70312 10.8909V10.926C3.70312 12.719 4.96875 14.1956 6.65625 14.5471C6.375 14.6174 6.02344 14.6877 5.70703 14.6877C5.46094 14.6877 5.25 14.6526 5.00391 14.6174C5.46094 16.094 6.83203 17.1487 8.44922 17.1838C7.18359 18.1682 5.60156 18.7659 3.87891 18.7659C3.5625 18.7659 3.28125 18.7307 3 18.6956C4.61719 19.7502 6.55078 20.3479 8.66016 20.3479C15.4453 20.3479 19.1367 14.7581 19.1367 9.87134C19.1367 9.69556 19.1367 9.55493 19.1367 9.37915Z" fill="#9CA3AF"/>
</g>
</svg>
