<svg width="20" height="20" viewBox="0 0 20 20" fill="none" xmlns="http://www.w3.org/2000/svg">
<g id="video-camera">
<path id="Vector" d="M14.8884 7.77682L14.8883 7.7769C14.8467 7.79765 14.8118 7.82955 14.7874 7.86902C14.763 7.90849 14.75 7.95398 14.75 8.0004V11.9996C14.75 12.046 14.763 12.0915 14.7874 12.131C14.8118 12.1705 14.8467 12.2024 14.8883 12.2231L14.8884 12.2232L16.8882 13.2231L14.8884 7.77682ZM14.8884 7.77682L16.8882 6.7769L14.8884 7.77682ZM2.75 6C2.75 5.66848 2.8817 5.35054 3.11612 5.11612C3.35054 4.8817 3.66848 4.75 4 4.75H10C10.3315 4.75 10.6495 4.8817 10.8839 5.11612C11.1183 5.35054 11.25 5.66848 11.25 6V14C11.25 14.3315 11.1183 14.6495 10.8839 14.8839C10.6495 15.1183 10.3315 15.25 10 15.25H4C3.66848 15.25 3.35054 15.1183 3.11612 14.8839C2.8817 14.6495 2.75 14.3315 2.75 14V6ZM17.0112 13.2492C16.9688 13.2511 16.9265 13.2422 16.8884 13.2232V6.77682C16.9265 6.75783 16.9688 6.74887 17.0112 6.75079C17.0538 6.7527 17.0952 6.76546 17.1314 6.78785C17.1676 6.81024 17.1976 6.84152 17.2183 6.87872C17.2391 6.91592 17.25 6.9578 17.25 7.0004V12.9996C17.25 13.0422 17.2391 13.0841 17.2183 13.1213C17.1976 13.1585 17.1676 13.1898 17.1314 13.2121C17.0952 13.2345 17.0538 13.2473 17.0112 13.2492Z" fill="#1F2A37" stroke="#1F2A37" stroke-width="1.5"/>
</g>
</svg>
