<svg width="136" height="38" viewBox="0 0 136 38" fill="none" xmlns="http://www.w3.org/2000/svg">
<g id="Mailchimp" clip-path="url(#clip0_2_21037)">
<g id="layer1">
<g id="g9361">
<path id="path9250" d="M52.8402 14.601C51.1058 14.601 50.2477 15.9659 49.854 16.8463C49.6341 17.3379 49.5725 17.7266 49.3941 17.7266C49.1428 17.7266 49.3228 17.3888 49.1171 16.6396C48.8465 15.6539 48.0307 14.601 46.2974 14.601C44.4751 14.601 43.695 16.1406 43.325 16.9866C43.072 17.5649 43.0717 17.7266 42.8771 17.7266C42.5952 17.7266 42.8288 17.2672 42.9555 16.7271C43.2054 15.6636 43.0155 14.851 43.0155 14.851H40.1268V25.7131H44.0697C44.0697 25.7131 44.0697 21.1736 44.0697 20.3087C44.0697 19.2428 44.5156 17.8902 45.2799 17.8902C46.163 17.8902 46.3398 18.5683 46.3398 19.8242C46.3398 20.9629 46.3398 25.7155 46.3398 25.7155H50.2986C50.2986 25.7155 50.2986 21.1484 50.2986 20.3087C50.2986 19.3599 50.6858 17.8902 51.5146 17.8902C52.41 17.8902 52.5686 18.843 52.5686 19.8242C52.5686 20.8055 52.5686 25.7131 52.5686 25.7131H56.4561C56.4561 25.7131 56.4561 21.4092 56.4561 19.3255C56.4561 16.4908 55.4569 14.601 52.8402 14.601" fill="#4B5563"/>
<path id="path9252" d="M119.765 14.601C118.031 14.601 117.173 15.9659 116.779 16.8463C116.559 17.3379 116.498 17.7266 116.319 17.7266C116.068 17.7266 116.236 17.2974 116.042 16.6396C115.753 15.659 115.034 14.601 113.222 14.601C111.4 14.601 110.62 16.1406 110.25 16.9866C109.997 17.5649 109.997 17.7266 109.802 17.7266C109.52 17.7266 109.754 17.2672 109.881 16.7271C110.13 15.6636 109.941 14.851 109.941 14.851H107.052V25.7131H110.995C110.995 25.7131 110.995 21.1736 110.995 20.3087C110.995 19.2428 111.441 17.8902 112.205 17.8902C113.088 17.8902 113.265 18.5683 113.265 19.8242C113.265 20.9629 113.265 25.7155 113.265 25.7155H117.223C117.223 25.7155 117.223 21.1484 117.223 20.3087C117.223 19.3599 117.611 17.8902 118.44 17.8902C119.335 17.8902 119.494 18.843 119.494 19.8242C119.494 20.8055 119.494 25.7131 119.494 25.7131H123.381C123.381 25.7131 123.381 21.4092 123.381 19.3255C123.381 16.4908 122.382 14.601 119.765 14.601" fill="#4B5563"/>
<path id="path9254" d="M62.2287 23.1744C61.2859 23.3921 60.7971 23.1017 60.7971 22.4768C60.7971 21.6207 61.6826 21.2778 62.9465 21.2778C63.5037 21.2778 64.0276 21.326 64.0276 21.326C64.0276 21.6925 63.2321 22.9429 62.2287 23.1744ZM63.1887 14.6033C60.1683 14.6033 58.0011 15.7138 58.0011 15.7138V18.9778C58.0011 18.9778 60.3945 17.6017 62.336 17.6017C63.8857 17.6017 64.0761 18.4375 64.0055 19.1313C64.0055 19.1313 63.5587 19.0129 62.1946 19.0129C58.9811 19.0129 57.3587 20.4735 57.3587 22.8155C57.3587 25.037 59.182 25.9657 60.718 25.9657C62.9595 25.9657 63.9448 24.4594 64.2477 23.7447C64.4578 23.249 64.496 22.9149 64.6848 22.9149C64.8999 22.9149 64.8275 23.1545 64.8171 23.6479C64.7989 24.5121 64.8395 25.1653 64.9765 25.7155H67.9484V20.3698C67.9484 17.0323 66.7675 14.6033 63.1887 14.6033" fill="#4B5563"/>
<path id="path9256" d="M74.4432 25.7155H78.3862V11.5627H74.4432V25.7155Z" fill="#4B5563"/>
<path id="path9258" d="M82.7262 20.2844C82.7262 19.3077 83.6335 18.4191 85.2993 18.4191C87.1143 18.4191 88.5741 19.2931 88.9016 19.4915V15.7138C88.9016 15.7138 87.7483 14.6033 84.9136 14.6033C81.9254 14.6033 79.437 16.3519 79.437 20.1154C79.437 23.8788 81.6953 25.9657 84.9056 25.9657C87.4131 25.9657 88.9079 24.5878 88.9079 24.5878V20.9996C88.435 21.2643 87.1173 22.1787 85.3174 22.1787C83.4115 22.1787 82.7262 21.302 82.7262 20.2844" fill="#4B5563"/>
<path id="path9260" d="M96.8888 14.6033C94.6063 14.6033 93.7381 16.7664 93.5629 17.142C93.3874 17.5175 93.3008 17.7336 93.1573 17.729C92.9081 17.7208 93.0818 17.2679 93.1789 16.9746C93.3625 16.4206 93.7515 14.9668 93.7515 13.1801C93.7515 11.9683 93.5876 11.5627 93.5876 11.5627H90.1838V25.7155H94.1268C94.1268 25.7155 94.1268 21.1914 94.1268 20.3113C94.1268 19.4308 94.4781 17.8926 95.4714 17.8926C96.2942 17.8926 96.5518 18.5022 96.5518 19.7298C96.5518 20.9572 96.5518 25.7155 96.5518 25.7155H100.495C100.495 25.7155 100.495 22.405 100.495 19.966C100.495 17.1778 100.033 14.6033 96.8888 14.6033" fill="#4B5563"/>
<path id="path9262" d="M101.776 14.8658V25.7154H105.719V14.8658C105.719 14.8658 105.057 15.2534 103.752 15.2534C102.447 15.2534 101.776 14.8658 101.776 14.8658" fill="#4B5563"/>
<path id="path9264" d="M103.736 11.4528C102.403 11.4528 101.322 12.1581 101.322 13.0281C101.322 13.898 102.403 14.6033 103.736 14.6033C105.069 14.6033 106.15 13.898 106.15 13.0281C106.15 12.1581 105.069 11.4528 103.736 11.4528Z" fill="#4B5563"/>
<path id="path9266" d="M69.2243 14.8658V25.7154H73.1672V14.8658C73.1672 14.8658 72.5045 15.2534 71.1997 15.2534C69.8952 15.2534 69.2243 14.8658 69.2243 14.8658" fill="#4B5563"/>
<path id="path9268" d="M71.184 11.4528C69.8511 11.4528 68.7705 12.1581 68.7705 13.0281C68.7705 13.898 69.8511 14.6033 71.184 14.6033C72.5171 14.6033 73.5977 13.898 73.5977 13.0281C73.5977 12.1581 72.5171 11.4528 71.184 11.4528Z" fill="#4B5563"/>
<path id="path9270" d="M130.133 23.3813C129.228 23.3813 128.563 22.2345 128.563 20.6366C128.563 19.0848 129.246 17.8925 130.102 17.8925C131.199 17.8925 131.667 18.8987 131.667 20.6366C131.667 22.4445 131.235 23.3813 130.133 23.3813ZM131.215 14.601C129.188 14.601 128.259 16.1208 127.855 16.9866C127.589 17.5587 127.602 17.7266 127.407 17.7266C127.126 17.7266 127.359 17.2672 127.486 16.7271C127.736 15.6636 127.546 14.851 127.546 14.851H124.657V28.7129H128.6C128.6 28.7129 128.6 26.4447 128.6 24.318C129.067 25.1095 129.931 25.9553 131.263 25.9553C134.115 25.9553 135.55 23.5429 135.55 20.2835C135.55 16.5893 133.832 14.601 131.215 14.601" fill="#4B5563"/>
<path id="path9272" d="M26.1971 17.8819C26.4622 17.8503 26.7162 17.8488 26.9497 17.8819C27.0848 17.5721 27.108 17.0379 26.9864 16.4563C26.8058 15.5917 26.5614 15.0686 26.0562 15.15C25.5511 15.2314 25.5324 15.8578 25.713 16.7224C25.8146 17.2086 25.9955 17.6243 26.1971 17.8819" fill="#4B5563"/>
<path id="path9274" d="M21.8601 18.566C22.2215 18.7246 22.4437 18.8298 22.5306 18.7378C22.5865 18.6806 22.5699 18.5713 22.4836 18.4303C22.3052 18.139 21.9381 17.8438 21.5489 17.6778C20.7527 17.3351 19.8031 17.4491 19.0705 17.9754C18.8288 18.1527 18.5995 18.3981 18.6323 18.5471C18.643 18.5953 18.6792 18.6317 18.764 18.6435C18.9635 18.6663 19.6602 18.314 20.4627 18.2649C21.0292 18.2302 21.4986 18.4074 21.8601 18.566" fill="#4B5563"/>
<path id="path9276" d="M21.133 18.9809C20.6622 19.0552 20.4025 19.2104 20.2358 19.3547C20.0936 19.479 20.0057 19.6165 20.0064 19.7132C20.0067 19.7591 20.0267 19.7857 20.0424 19.799C20.064 19.8179 20.0893 19.8284 20.1199 19.8284C20.2262 19.8284 20.4643 19.7327 20.4643 19.7327C21.1195 19.4983 21.5516 19.5267 21.9799 19.5755C22.2166 19.6021 22.3284 19.6168 22.3803 19.5356C22.3958 19.5124 22.4143 19.4619 22.367 19.3851C22.2566 19.2063 21.7813 18.9039 21.133 18.9809" fill="#4B5563"/>
<path id="path9278" d="M24.7326 20.5039C25.0522 20.6609 25.4041 20.5992 25.5187 20.3661C25.6332 20.1332 25.467 19.8168 25.1472 19.6596C24.8277 19.5027 24.4758 19.5643 24.3611 19.7974C24.2466 20.0305 24.4129 20.3467 24.7326 20.5039Z" fill="#4B5563"/>
<path id="path9280" d="M26.7876 18.7082C26.5279 18.7037 26.3126 18.9889 26.3065 19.345C26.3004 19.7012 26.5061 19.9933 26.7658 19.9978C27.0254 20.0022 27.2409 19.717 27.2468 19.361C27.2529 19.0048 27.0472 18.7125 26.7876 18.7082Z" fill="#4B5563"/>
<path id="path9282" d="M9.3453 25.1292C9.2807 25.0483 9.17458 25.0729 9.07181 25.0969C9.00003 25.1137 8.9187 25.1325 8.82955 25.131C8.63856 25.1272 8.47683 25.0457 8.38599 24.9062C8.2677 24.7245 8.27454 24.4536 8.40517 24.1437C8.42274 24.1017 8.4435 24.0553 8.4661 24.0047C8.67429 23.5374 9.02291 22.7553 8.63155 22.0101C8.33698 21.4492 7.85659 21.0999 7.27899 21.0266C6.72449 20.9563 6.15361 21.1618 5.78947 21.5636C5.21499 22.1974 5.12521 23.0599 5.23631 23.3646C5.27705 23.4762 5.3407 23.507 5.387 23.5134C5.48471 23.5264 5.62924 23.4554 5.71979 23.2118C5.72626 23.1943 5.73488 23.1671 5.74568 23.1326C5.78608 23.0039 5.86119 22.764 5.98423 22.5718C6.13259 22.3401 6.36366 22.1805 6.63488 22.1224C6.9112 22.0632 7.1936 22.116 7.43 22.2708C7.83249 22.534 7.98745 23.0271 7.81563 23.4976C7.72683 23.741 7.58252 24.2062 7.61439 24.5887C7.6787 25.3624 8.15462 25.6732 8.58225 25.7062C8.99801 25.7218 9.28857 25.4885 9.36208 25.3179C9.40547 25.217 9.36885 25.1556 9.34531 25.1292" fill="#4B5563"/>
<path id="path9284" d="M13.2977 10.9173C14.6537 9.35038 16.323 7.98813 17.8183 7.22321C17.8701 7.19665 17.9249 7.25289 17.8969 7.30359C17.7781 7.51862 17.5496 7.97908 17.4771 8.32832C17.4658 8.38274 17.525 8.42367 17.571 8.39238C18.5012 7.75827 20.1196 7.07877 21.5391 6.99143C21.6 6.98765 21.6295 7.06587 21.581 7.1031C21.3651 7.26874 21.129 7.49786 20.9565 7.72965C20.9272 7.76908 20.9549 7.82589 21.004 7.82619C22.0007 7.83329 23.4058 8.1821 24.3217 8.69579C24.3837 8.73047 24.3395 8.85047 24.2702 8.8346C22.8845 8.5171 20.6164 8.27612 18.2602 8.85078C16.1568 9.36389 14.5513 10.1559 13.3802 11.0078C13.3209 11.0509 13.2499 10.9727 13.2977 10.9173L13.2977 10.9173ZM20.0512 26.0989C20.0514 26.0992 20.0515 26.0998 20.0516 26.0998C20.0519 26.1002 20.0521 26.101 20.0525 26.1015C20.0521 26.1006 20.0516 26.0998 20.0512 26.0989V26.0989ZM25.6432 26.759C25.6834 26.7421 25.7111 26.6963 25.7063 26.6508C25.7007 26.5947 25.6507 26.5539 25.5947 26.5597C25.5947 26.5597 22.7008 26.988 19.9671 25.9873C20.2649 25.0195 21.0567 25.3689 22.2534 25.4655C24.4105 25.5941 26.3437 25.279 27.7726 24.8688C29.0107 24.5137 30.6367 23.8131 31.8998 22.8161C32.3258 23.752 32.4762 24.7818 32.4762 24.7818C32.4762 24.7818 32.806 24.7229 33.0816 24.8924C33.342 25.0527 33.533 25.3858 33.4025 26.2471C33.1369 27.8562 32.4529 29.1622 31.3035 30.3637C30.6037 31.1168 29.7542 31.7717 28.7823 32.2479C28.2661 32.519 27.7165 32.7536 27.1359 32.9431C22.8024 34.3585 18.3667 32.8025 16.9368 29.4611C16.8228 29.2099 16.7263 28.947 16.6502 28.6719C16.0408 26.47 16.5581 23.8283 18.1751 22.1654C18.1753 22.1652 18.175 22.1646 18.1751 22.1646C18.2748 22.0587 18.3765 21.9339 18.3765 21.7771C18.3765 21.6458 18.2932 21.5073 18.2208 21.4091C17.655 20.5886 15.6954 19.1903 16.0887 16.4844C16.3712 14.5403 18.0713 13.1713 19.6564 13.2524C19.7904 13.2594 19.9246 13.2675 20.0582 13.2754C20.7451 13.3162 21.3444 13.4043 21.9098 13.4278C22.8562 13.4688 23.7073 13.3312 24.7153 12.4914C25.0553 12.208 25.3279 11.9624 25.7892 11.8842C25.8377 11.8759 25.9583 11.8326 26.1994 11.844C26.4455 11.8571 26.6798 11.9247 26.8902 12.0649C27.6984 12.6026 27.8129 13.9049 27.8549 14.8577C27.8787 15.4015 27.9446 16.7174 27.967 17.0951C28.0184 17.9587 28.2455 18.0805 28.7047 18.2317C28.9631 18.3169 29.2029 18.3802 29.5563 18.4794C30.6259 18.7797 31.2602 19.0845 31.6598 19.4758C31.8983 19.7203 32.0092 19.9803 32.0435 20.2281C32.1695 21.1483 31.329 22.285 29.104 23.3179C26.6716 24.4467 23.7208 24.7326 21.682 24.5056C21.5257 24.4883 20.9696 24.4252 20.9677 24.4249C19.3369 24.2053 18.4066 26.3129 19.3854 27.7568C20.0162 28.6873 21.7344 29.293 23.4534 29.2933C27.395 29.2937 30.4245 27.6106 31.5514 26.157C31.5852 26.1135 31.5885 26.1088 31.6416 26.0284C31.6971 25.9449 31.6514 25.8988 31.5823 25.9461C30.6615 26.5761 26.5719 29.0773 22.1975 28.3248C22.1975 28.3248 21.666 28.2374 21.1808 28.0487C20.7952 27.8987 19.9882 27.5274 19.8902 26.6995C23.4204 27.7912 25.6432 26.7591 25.6432 26.7591V26.759ZM6.25309 18.3695C5.02536 18.6082 3.94326 19.304 3.2816 20.2651C2.88607 19.9353 2.14927 19.2968 2.01917 19.0479C0.962736 17.0421 3.17206 13.142 4.71544 10.9395C8.52967 5.49646 14.5036 1.37649 17.269 2.12405C17.7187 2.25129 19.2076 3.9776 19.2076 3.9776C19.2076 3.9776 16.4433 5.51143 13.8797 7.64942C10.4255 10.3091 7.81622 14.1747 6.25309 18.3695ZM8.31614 27.5742C8.13031 27.6059 7.94078 27.6186 7.74961 27.6139C5.90234 27.5644 3.90694 25.9013 3.70865 23.9291C3.4895 21.7491 4.60336 20.0714 6.57552 19.6736C6.81129 19.6261 7.09623 19.5987 7.40349 19.6147C8.50847 19.6752 10.1368 20.5236 10.5088 22.9309C10.8383 25.0628 10.315 27.2333 8.31614 27.5742V27.5742ZM33.34 23.714C33.3242 23.6581 33.2211 23.2813 33.0795 22.8273C32.9379 22.373 32.7912 22.0534 32.7912 22.0534C33.3593 21.2028 33.3694 20.4422 33.2939 20.0112C33.2132 19.4772 32.9909 19.0221 32.5428 18.5517C32.0946 18.0813 31.1782 17.5995 29.8901 17.2378C29.7428 17.1964 29.257 17.0631 29.2143 17.0502C29.2109 17.0223 29.1787 15.4569 29.1495 14.785C29.1281 14.2992 29.0865 13.5408 28.8511 12.7938C28.5707 11.7827 28.082 10.898 27.4723 10.3319C29.1553 8.58739 30.2059 6.66547 30.2034 5.01672C30.1985 1.846 26.3046 0.886667 21.5058 2.87369C21.5008 2.87575 20.4964 3.30167 20.4891 3.30523C20.4845 3.30093 18.651 1.5018 18.6234 1.47778C13.1522 -3.29439 -3.95398 15.7195 1.5152 20.3375L2.71043 21.3501C2.4004 22.1532 2.27857 23.0734 2.37809 24.063C2.50582 25.3339 3.1614 26.5522 4.22398 27.4934C5.23268 28.3872 6.55889 28.9528 7.84588 28.9517C9.97417 33.8563 14.8371 36.8651 20.5388 37.0344C26.655 37.2161 31.7892 34.3462 33.9405 29.1909C34.0812 28.8291 34.6784 27.1989 34.6784 25.7598C34.6784 24.3135 33.8607 23.714 33.34 23.714" fill="#4B5563"/>
</g>
</g>
</g>
<defs>
<clipPath id="clip0_2_21037">
<rect width="136" height="37.2277" fill="white" transform="translate(0 0.265198)"/>
</clipPath>
</defs>
</svg>
