<svg width="150" height="34" viewBox="0 0 150 34" fill="none" xmlns="http://www.w3.org/2000/svg">
<g id="Microsoft" clip-path="url(#clip0_2_21033)">
<path id="Vector" d="M149.977 15.7517V13.1126H146.7V9.01105L146.59 9.0462L143.514 9.9837H143.455V13.0892H138.599V11.3548C138.599 10.5579 138.786 9.93683 139.138 9.52667C139.489 9.11652 140.005 8.91144 140.638 8.91144C141.107 8.91144 141.599 9.02863 142.068 9.23956L142.185 9.28644V6.51964L142.138 6.4962C141.693 6.338 141.083 6.25597 140.333 6.25597C139.384 6.25597 138.517 6.46691 137.755 6.88175C136.993 7.28019 136.396 7.87784 135.986 8.62784C135.564 9.37784 135.353 10.245 135.353 11.1943V13.0927H133.079V15.7294H135.364V26.8388H138.634V15.7294H143.494V22.7841C143.494 25.6903 144.86 27.1669 147.572 27.1669C148.017 27.1669 148.486 27.1107 148.955 27.0146C149.441 26.9091 149.775 26.8036 149.963 26.6982L150.009 26.6747V24.0146L149.877 24.1036C149.701 24.2208 149.479 24.3228 149.221 24.3931C148.963 24.4634 148.74 24.5103 148.574 24.5103C147.941 24.5103 147.472 24.3462 147.184 24.0099C146.886 23.6759 146.739 23.0841 146.739 22.2521V15.7599H149.996L149.989 15.7435L149.977 15.7517ZM125.73 24.5173C124.543 24.5173 123.606 24.1224 122.941 23.3454C122.282 22.5661 121.945 21.454 121.945 20.0407C121.945 18.5829 122.282 17.4392 122.945 16.647C123.606 15.8595 124.534 15.4587 125.706 15.4587C126.843 15.4587 127.733 15.8407 128.389 16.5954C129.046 17.3548 129.374 18.4868 129.374 19.961C129.374 21.454 129.069 22.6013 128.46 23.3677C127.85 24.1294 126.936 24.5161 125.741 24.5161L125.73 24.5173ZM125.882 12.7821C123.62 12.7821 121.818 13.4454 120.533 14.7556C119.256 16.0681 118.602 17.8798 118.602 20.1462C118.602 22.3025 119.235 24.031 120.492 25.2907C121.746 26.5564 123.454 27.2126 125.563 27.2126C127.757 27.2126 129.524 26.5329 130.804 25.2146C132.093 23.888 132.732 22.0903 132.732 19.879C132.732 17.6923 132.123 15.9462 130.916 14.6993C129.709 13.4407 128.017 12.8056 125.877 12.8056L125.882 12.7821ZM113.314 12.8056C111.768 12.8056 110.497 13.1993 109.518 13.9775C108.543 14.7603 108.041 15.7821 108.041 17.0243C108.041 17.6735 108.151 18.2431 108.364 18.7353C108.575 19.2204 108.904 19.6493 109.342 20.0103C109.775 20.3618 110.443 20.7368 111.334 21.1212C112.084 21.4259 112.635 21.6837 112.991 21.8946C113.343 22.0903 113.591 22.2931 113.718 22.4888C113.858 22.6763 113.929 22.9458 113.929 23.2622C113.929 24.1927 113.239 24.6403 111.819 24.6403C111.289 24.6403 110.687 24.5302 110.029 24.3122C109.364 24.0966 108.748 23.7849 108.192 23.3841L108.052 23.2903V26.431L108.098 26.4544C108.567 26.6653 109.145 26.8528 109.833 26.9935C110.518 27.1458 111.145 27.2161 111.684 27.2161C113.36 27.2161 114.708 26.8177 115.692 26.0396C116.677 25.2521 117.18 24.1997 117.18 22.9177C117.18 21.9919 116.911 21.195 116.378 20.5564C115.85 19.9165 114.936 19.3329 113.655 18.8173C112.644 18.4071 111.991 18.0673 111.71 17.8095C111.452 17.5564 111.332 17.2001 111.332 16.7501C111.332 16.3517 111.496 16.0306 111.83 15.7728C112.165 15.5091 112.634 15.3778 113.22 15.3778C113.764 15.3778 114.321 15.4599 114.884 15.6298C115.434 15.8032 115.921 16.0282 116.325 16.3048L116.462 16.3985V13.3985L116.415 13.3751C116.034 13.211 115.54 13.0739 114.939 12.965C114.341 12.8513 113.798 12.8009 113.327 12.8009L113.314 12.8056ZM99.4992 24.5314C98.3156 24.5314 97.3781 24.14 96.7219 23.3595C96.0539 22.586 95.7199 21.4728 95.7199 20.0548C95.7199 18.6017 96.0551 17.4532 96.7207 16.6646C97.377 15.8771 98.3074 15.4763 99.4746 15.4763C100.611 15.4763 101.514 15.8583 102.164 16.613C102.811 17.3747 103.148 18.5068 103.148 19.981C103.148 21.4716 102.832 22.6177 102.223 23.3853C101.625 24.147 100.711 24.5337 99.5039 24.5337L99.4992 24.5314ZM99.668 12.8032C97.3945 12.8032 95.5898 13.4642 94.3125 14.7743C93.027 16.0868 92.3789 17.8974 92.3789 20.165C92.3789 22.3212 93.0117 24.0485 94.2574 25.3095C95.5137 26.5751 97.2176 27.2314 99.3258 27.2314C101.529 27.2314 103.287 26.5517 104.576 25.2275C105.858 23.8985 106.509 22.1009 106.509 19.8896C106.509 17.7017 105.9 15.9556 104.705 14.7099C103.498 13.4501 101.803 12.815 99.6656 12.815L99.668 12.8032ZM87.4336 15.5196V13.129H84.1992V26.8751H87.4336V19.8439C87.4336 18.6485 87.7031 17.6642 88.2387 16.92C88.766 16.1794 89.4691 15.8185 90.3246 15.8185C90.6176 15.8185 90.9457 15.8653 91.3066 15.9591C91.6582 16.0528 91.9113 16.1466 92.0566 16.2638L92.1973 16.3575V13.0997L92.1457 13.0763C91.841 12.9403 91.4191 12.8747 90.8801 12.8747C90.0715 12.8747 89.3449 13.1372 88.7215 13.6482C88.1707 14.1028 87.7758 14.7216 87.4734 15.495H87.4148L87.4441 15.5185L87.4336 15.5196ZM78.3867 12.8009C76.8984 12.8009 75.5742 13.1114 74.4492 13.7384C73.3148 14.3712 72.4453 15.2618 71.8477 16.4103C71.2617 17.547 70.957 18.8771 70.957 20.3595C70.957 21.6603 71.2523 22.8485 71.8242 23.9009C72.4031 24.9556 73.2188 25.7759 74.25 26.3501C75.2742 26.9161 76.4648 27.2056 77.782 27.2056C79.3195 27.2056 80.6297 26.9009 81.6844 26.2915L81.7313 26.2681V23.3009L81.5906 23.3982C81.1137 23.7497 80.5828 24.0251 80.0086 24.2243C79.4367 24.4235 78.9164 24.5243 78.4617 24.5243C77.1891 24.5243 76.1719 24.1259 75.4312 23.3466C74.6812 22.5497 74.3063 21.4482 74.3063 20.0653C74.3063 18.6591 74.7047 17.5341 75.4734 16.7138C76.2469 15.87 77.2641 15.4482 78.5086 15.4482C79.5633 15.4482 80.6027 15.8114 81.5824 16.5146L81.723 16.6083V13.4911L81.6844 13.4677C81.3152 13.2568 80.8137 13.0927 80.1844 12.9591C79.568 12.8302 78.9609 12.7669 78.382 12.7669L78.3867 12.8009ZM68.7375 13.095H65.5078V26.8528H68.7422V13.095H68.7375ZM67.1438 7.24738C66.6117 7.24738 66.1477 7.42784 65.7656 7.78644C65.3836 8.14738 65.1891 8.59972 65.1891 9.13409C65.1891 9.66144 65.3848 10.1068 65.7633 10.4583C66.1383 10.8099 66.607 10.9833 67.1461 10.9833C67.6852 10.9833 68.1539 10.8075 68.5348 10.456C68.9191 10.1044 69.1137 9.65909 69.1137 9.13175C69.1137 8.61613 68.9262 8.17081 68.5512 7.79581C68.1762 7.44425 67.7074 7.25675 67.1449 7.25675L67.1438 7.24738ZM59.0707 12.0966V26.8622H62.3754V7.69152H57.8051L52.0125 21.9392L46.3758 7.68917H41.625V26.8751H44.7305V12.1153H44.8359L50.7891 26.8786H53.127L58.9863 12.1165H59.0977L59.0801 12.1095L59.0707 12.0966ZM16.8012 18.0614H32.0121V33.2853H16.7777L16.7988 18.072L16.8012 18.0614ZM3.05198e-06 18.0708H15.2086V33.2853H-0.00468445L3.05198e-06 18.072V18.0708ZM16.8023 1.26964H32.0133V16.4806H16.793L16.8023 1.26495V1.26964ZM3.05198e-06 1.2673H15.2086V16.4806H-0.00468445L3.05198e-06 1.26495V1.2673Z" fill="#4B5563"/>
</g>
<defs>
<clipPath id="clip0_2_21033">
<rect width="150" height="32.8125" fill="white" transform="translate(0 0.472778)"/>
</clipPath>
</defs>
</svg>
