<svg width="128" height="41" viewBox="0 0 128 41" fill="none" xmlns="http://www.w3.org/2000/svg">
<g id="Spotify">
<path id="Vector" d="M51.5488 19.0325C55.4435 19.9793 57.0313 21.4494 57.0313 24.1074C57.0313 27.2524 54.6285 29.2847 50.9096 29.2847C48.281 29.2847 45.8441 28.3508 43.8635 26.5826C43.8229 26.5463 43.798 26.4955 43.7943 26.4411C43.7905 26.3867 43.8082 26.333 43.8436 26.2915L45.5936 24.2098C45.6115 24.1885 45.6334 24.171 45.6581 24.1583C45.6828 24.1455 45.7098 24.1379 45.7375 24.1357C45.7651 24.1335 45.793 24.1368 45.8194 24.1455C45.8458 24.1542 45.8702 24.168 45.8912 24.1862C47.5936 25.6599 49.1155 26.288 50.9808 26.288C52.6608 26.288 53.7046 25.5605 53.7046 24.3915C53.7046 23.3359 53.1883 22.7461 50.1293 22.0416C46.5363 21.1725 44.4563 20.0481 44.4563 16.8697C44.4563 13.9059 46.8673 11.8359 50.318 11.8359C52.6644 11.8359 54.6737 12.531 56.4573 13.9617C56.5432 14.0311 56.5608 14.1558 56.4967 14.2464L54.9354 16.4457C54.9191 16.4683 54.8985 16.4874 54.8747 16.502C54.851 16.5167 54.8246 16.5264 54.797 16.5308C54.7695 16.5352 54.7413 16.5341 54.7142 16.5275C54.6871 16.521 54.6616 16.5092 54.6391 16.4927C53.1407 15.3754 51.7117 14.8332 50.2698 14.8332C48.7832 14.8332 47.7835 15.5477 47.7835 16.6092C47.7835 17.7324 48.3539 18.2675 51.5494 19.0308L51.5488 19.0325ZM65.4445 15.8806C63.8333 15.8806 62.5113 16.5157 61.4205 17.8153V16.351C61.4205 16.2955 61.3984 16.2422 61.3592 16.203C61.3199 16.1637 61.2667 16.1417 61.2111 16.1417H58.3497C58.2942 16.1417 58.2409 16.1637 58.2016 16.203C58.1624 16.2422 58.1403 16.2955 58.1403 16.351V32.6225C58.1403 32.7371 58.2344 32.8312 58.3497 32.8312H61.2117C61.3276 32.8312 61.4217 32.7371 61.4217 32.6219V27.4852C62.5119 28.7084 63.8345 29.307 65.4463 29.307C68.4424 29.307 71.4739 27.0019 71.4739 22.5938C71.4739 18.1857 68.4407 15.8806 65.4445 15.8806ZM68.1437 22.5944C68.1437 24.8384 66.7618 26.405 64.7824 26.405C62.8242 26.405 61.3482 24.7672 61.3482 22.5944C61.3482 20.4215 62.8242 18.7838 64.7824 18.7838C66.73 18.7838 68.1443 20.3862 68.1443 22.5944H68.1437ZM79.2444 15.8806C75.3868 15.8806 72.3654 18.8502 72.3654 22.6432C72.3654 26.3938 75.3656 29.3323 79.1962 29.3323C83.0674 29.3323 86.0982 26.372 86.0982 22.5944C86.0982 18.8297 83.0874 15.88 79.2438 15.88L79.2444 15.8806ZM79.2438 26.4279C77.1915 26.4279 75.6449 24.7796 75.6449 22.5938C75.6449 20.3992 77.1386 18.8067 79.1968 18.8067C81.2609 18.8067 82.8192 20.455 82.8192 22.642C82.8192 24.8355 81.315 26.4273 79.2438 26.4273V26.4279ZM94.3357 16.1417C94.4515 16.1417 94.545 16.2358 94.545 16.351V18.8108C94.5451 18.8383 94.5397 18.8655 94.5293 18.8909C94.5188 18.9163 94.5035 18.9394 94.4841 18.9588C94.4647 18.9783 94.4416 18.9937 94.4163 19.0042C94.3909 19.0148 94.3637 19.0202 94.3362 19.0202H91.1872V24.9366C91.1872 25.8716 91.5977 26.288 92.5162 26.288C93.1007 26.2911 93.6771 26.1518 94.1957 25.8822C94.2278 25.8663 94.2633 25.8588 94.2991 25.8605C94.3348 25.8622 94.3696 25.873 94.4 25.8918C94.4304 25.9106 94.4556 25.9369 94.473 25.9682C94.4905 25.9994 94.4996 26.0346 94.4997 26.0704V28.412C94.4997 28.4867 94.4586 28.5573 94.3939 28.5943C93.5912 29.0489 92.7397 29.2606 91.7123 29.2606C89.1878 29.2606 87.9076 27.9569 87.9076 25.3841V19.0208H86.5316C86.5042 19.0207 86.477 19.0152 86.4517 19.0047C86.4264 18.9941 86.4035 18.9787 86.3841 18.9592C86.3648 18.9398 86.3495 18.9167 86.3391 18.8914C86.3287 18.866 86.3233 18.8388 86.3234 18.8114V16.351C86.3234 16.2358 86.4163 16.1417 86.5316 16.1417H87.9076V12.9215C87.9076 12.8062 88.0017 12.7121 88.1182 12.7121H90.9796C91.0955 12.7121 91.189 12.8062 91.189 12.9215V16.1417H94.338H94.3357ZM110.198 16.154C110.285 16.154 110.363 16.2069 110.394 16.2893L113.737 25.0125L116.789 16.294C116.804 16.2528 116.83 16.2172 116.866 16.1919C116.901 16.1666 116.944 16.153 116.988 16.1528H119.967C120.001 16.1528 120.035 16.1611 120.065 16.1771C120.095 16.1931 120.121 16.2162 120.14 16.2445C120.159 16.2728 120.171 16.3053 120.175 16.3392C120.179 16.3732 120.174 16.4075 120.161 16.4392L115.196 29.2706C114.167 31.9186 112.998 32.903 110.885 32.903C109.755 32.903 108.841 32.6689 107.827 32.1209C107.781 32.0957 107.746 32.0537 107.729 32.0034C107.712 31.9531 107.716 31.8983 107.738 31.8504L108.708 29.7216C108.72 29.6954 108.737 29.6718 108.758 29.6524C108.78 29.633 108.805 29.6181 108.832 29.6087C108.859 29.5999 108.888 29.5968 108.917 29.5995C108.946 29.6022 108.974 29.6108 108.999 29.6246C109.542 29.9215 110.073 30.0715 110.578 30.0715C111.201 30.0715 111.658 29.8669 112.123 28.8354L108.03 19.0208H105.357V28.8383C105.357 28.9542 105.263 29.0483 105.148 29.0483H102.286C102.258 29.0483 102.231 29.0428 102.205 29.0323C102.18 29.0217 102.157 29.0063 102.137 28.9868C102.118 28.9673 102.102 28.9441 102.092 28.9186C102.081 28.8932 102.076 28.8659 102.076 28.8383V19.0208H100.701C100.646 19.0203 100.593 18.9981 100.553 18.9588C100.514 18.9195 100.492 18.8664 100.491 18.8108V16.3393C100.491 16.2234 100.585 16.1293 100.701 16.1293H102.076V15.5236C102.076 12.7092 103.473 11.2202 106.117 11.2202C107.203 11.2202 107.928 11.3937 108.495 11.5613C108.585 11.5889 108.644 11.6707 108.644 11.7624V14.1734C108.645 14.2068 108.637 14.2397 108.622 14.2695C108.607 14.2993 108.585 14.3251 108.558 14.3447C108.531 14.3643 108.5 14.3772 108.467 14.3821C108.434 14.3871 108.401 14.3841 108.369 14.3734C107.832 14.1946 107.353 14.0758 106.757 14.0758C105.757 14.0758 105.31 14.5951 105.31 15.7588V16.154H110.198H110.198ZM98.9478 16.1417C99.063 16.1417 99.1571 16.2358 99.1571 16.351V28.8378C99.1571 28.953 99.063 29.0471 98.9472 29.0471H96.0851C96.0295 29.0471 95.9762 29.0251 95.9369 28.9858C95.8975 28.9466 95.8753 28.8933 95.8752 28.8378V16.351C95.8752 16.2358 95.9693 16.1417 96.0845 16.1417H98.9466H98.9478ZM97.5311 10.4564C98.0754 10.4564 98.5975 10.6726 98.9823 11.0575C99.3672 11.4423 99.5834 11.9644 99.5834 12.5087C99.5834 13.053 99.3672 13.575 98.9823 13.9599C98.5975 14.3447 98.0754 14.561 97.5311 14.561C96.9868 14.561 96.4648 14.3447 96.0799 13.9599C95.6951 13.575 95.4788 13.053 95.4788 12.5087C95.4788 11.9644 95.6951 11.4423 96.0799 11.0575C96.4648 10.6726 96.9868 10.4564 97.5311 10.4564ZM122.605 20.1557C122.34 20.1567 122.077 20.1053 121.833 20.0045C121.588 19.9036 121.365 19.7553 121.178 19.5681C120.991 19.3808 120.843 19.1584 120.742 18.9136C120.641 18.6688 120.59 18.4064 120.591 18.1416C120.591 17.8758 120.643 17.6125 120.745 17.3669C120.846 17.1213 120.996 16.8981 121.184 16.7102C121.372 16.5222 121.595 16.3731 121.84 16.2715C122.086 16.1698 122.349 16.1175 122.615 16.1176C122.88 16.1164 123.142 16.1676 123.387 16.2684C123.632 16.3691 123.854 16.5173 124.042 16.7044C124.229 16.8916 124.377 17.1139 124.478 17.3587C124.579 17.6034 124.63 17.8657 124.629 18.1305C124.629 18.3964 124.577 18.6598 124.475 18.9055C124.374 19.1513 124.225 19.3746 124.037 19.5627C123.848 19.7508 123.625 19.9001 123.38 20.0019C123.134 20.1038 122.871 20.1562 122.605 20.1563V20.1557ZM122.615 16.3181C121.584 16.3181 120.803 17.1384 120.803 18.1422C120.803 19.146 121.578 19.9552 122.605 19.9552C123.636 19.9552 124.418 19.1354 124.418 18.1311C124.418 17.1272 123.641 16.3181 122.615 16.3181ZM123.062 18.338L123.631 19.1354H123.151L122.639 18.4039H122.198V19.1354H121.795V17.0214H122.739C123.229 17.0214 123.553 17.2731 123.553 17.6959C123.553 18.0428 123.353 18.2545 123.062 18.3369L123.062 18.338ZM122.72 17.3842H122.197V18.0523H122.72C122.983 18.0523 123.138 17.9241 123.138 17.7171C123.138 17.4995 122.983 17.3836 122.72 17.3836V17.3842ZM19.6957 1.9425C9.47178 1.9425 1.18375 10.3458 1.18375 20.5703C1.18316 30.1773 8.49973 37.9326 17.8651 39.1087H21.5263C30.8917 37.9326 38.2082 30.1773 38.2082 20.5697C38.2082 10.3458 29.9196 1.9425 19.6963 1.9425H19.6957ZM28.1854 28.6437C28.1066 28.7732 28.0029 28.8859 27.8805 28.9753C27.758 29.0647 27.6191 29.129 27.4717 29.1646C27.3243 29.2002 27.1714 29.2064 27.0216 29.1828C26.8718 29.1592 26.7282 29.1063 26.5989 29.0271C22.2514 26.3703 16.7801 25.7705 10.3362 27.2424C10.1886 27.2763 10.0357 27.2808 9.88626 27.2556C9.73686 27.2304 9.59389 27.176 9.46554 27.0955C9.33719 27.015 9.22597 26.91 9.13825 26.7864C9.05052 26.6629 8.98801 26.5233 8.9543 26.3756C8.92037 26.2278 8.91591 26.0749 8.94119 25.9254C8.96647 25.7759 9.02098 25.6329 9.1016 25.5046C9.18223 25.3762 9.28738 25.265 9.41104 25.1773C9.5347 25.0896 9.67445 25.0272 9.82226 24.9936C16.8742 23.3824 22.9229 24.0763 27.8026 27.0577C28.0635 27.2176 28.2503 27.4745 28.3219 27.7719C28.3936 28.0694 28.3443 28.3831 28.1848 28.6443L28.1854 28.6437ZM30.4506 23.6029C30.2503 23.929 29.9288 24.1622 29.5566 24.2513C29.1845 24.3404 28.7922 24.2781 28.4659 24.078C23.491 21.0202 15.9051 20.134 10.0187 21.9211C9.65232 22.0316 9.25709 21.9925 8.9195 21.8123C8.58191 21.6321 8.32948 21.3255 8.21746 20.9596C7.98812 20.1951 8.4174 19.3913 9.18011 19.1601C15.9045 17.1196 24.2625 18.1075 29.9766 21.6182C30.3026 21.8186 30.5357 22.1402 30.6247 22.5123C30.7137 22.8845 30.6513 23.2767 30.4512 23.6029H30.4506ZM30.6459 18.3539C24.6783 14.8103 14.8354 14.4845 9.13894 16.2134C8.69944 16.3466 8.22504 16.2997 7.82008 16.0831C7.41513 15.8666 7.1128 15.498 6.97961 15.0585C6.84642 14.619 6.89327 14.1446 7.10987 13.7396C7.32646 13.3347 7.69505 13.0323 8.13455 12.8991C14.6737 10.9144 25.5445 11.2979 32.4141 15.3748C32.6097 15.4908 32.7806 15.6442 32.9169 15.8263C33.0532 16.0083 33.1523 16.2154 33.2086 16.4358C33.2648 16.6561 33.2771 16.8854 33.2447 17.1105C33.2123 17.3356 33.1359 17.5521 33.0198 17.7476C32.9039 17.9434 32.7505 18.1144 32.5684 18.2508C32.3863 18.3872 32.1792 18.4863 31.9587 18.5426C31.7383 18.5988 31.5089 18.6111 31.2837 18.5786C31.0586 18.5461 30.842 18.4696 30.6464 18.3533L30.6459 18.3539Z" fill="#4B5563"/>
</g>
</svg>
